<svg xmlns="http://www.w3.org/2000/svg" xmlns:xlink="http://www.w3.org/1999/xlink" version="1.1" x="0px" y="0px" viewBox="0 0 100 125" enable-background="new 0 0 100 100" xml:space="preserve"><path d="M52.709,44C52.709,44,52,12.359,73,12.359v3.927C73,16.286,56.635,14,56.635,44H52.709z"/><path d="M24.527,8.056c0,0,28.535-5.147,31.637,17.414C56.164,25.47,44.498,7.895,24.527,8.056z"/><path d="M20.692,8.854c0,0,24.605,2.875,33.329,17.861C54.021,26.715,26.382,28.475,20.692,8.854z"/><path d="M85.574,50.809c-1.031-8.939-5.271-16.743-16.178-16.743c-3.722,0-7.142,0.867-9.916,2.928  c-0.393,2.32-0.607,5.353-0.729,8.007h-8.385c0.115-2.854,0.117-5.953,0.633-7.707c-2.837-2.237-5.194-3.412-9.089-3.412  c-4.257,0-8.378,1.75-11.467,4.675c-10.43,9.877-7.436,32.569,1.424,42.544c4.333,4.879,11.09,9.877,17.896,9.877  c2.517,0,4.692-1.16,5.891-2.889c1.197,1.729,3.373,2.904,5.891,2.904c11.488,0,21.276-14.582,23.22-24.564  C85.678,61.739,86.185,56.078,85.574,50.809z M41,42.981c0,0,10.5,10.625,28,0C69,42.981,52.084,59.273,41,42.981z"/><text x="0" y="115" fill="#000000" font-size="5px" font-weight="bold" font-family="'Helvetica Neue', Helvetica, Arial-Unicode, Arial, Sans-serif">Created by Yi Chen</text><text x="0" y="120" fill="#000000" font-size="5px" font-weight="bold" font-family="'Helvetica Neue', Helvetica, Arial-Unicode, Arial, Sans-serif">from the Noun Project</text></svg>