<svg xmlns="http://www.w3.org/2000/svg" xmlns:xlink="http://www.w3.org/1999/xlink" version="1.1" x="0px" y="0px" viewBox="0 0 100 125" enable-background="new 0 0 100 100" xml:space="preserve"><path d="M81.986,23.797c0,0-6.521-4.621-5.577-6.797l-2.55,2.708l-3.376,0.738l-0.02,1.173c0,0,1.62,1.524,2.671,1.493  c0,0,3.788,3.565,2.896,8.855L75.806,41.97c0,0-1.437,22.143-25.459,28.132c-1.61,0.526-3.206,1.113-4.773,1.755  c-3.699,1.512-7.102,3.724-10.8,5.292l-0.896,5.158c0,0,9.994,12.917,32.688,2.102c0,0,26.508-10.832,28.325-37.723  C94.89,46.686,97.072,26.761,81.986,23.797z M81.915,49.846c-2.621,7.304-7.024,14.079-12.869,19.209  c-3.068,2.694-6.724,5.223-10.474,6.883c-3.284,1.454-7.019,2.529-10.576,3.043c-4.282,0.621-8.629,0.613-12.92,1.183  c10.795-1.436,21.789-4.313,30.431-11.242c6.598-5.29,12.542-13.228,14.668-21.506c1.095-4.268,1.172-9.91-0.396-14.103  c-0.479-1.282-0.484-3.003,0.719-3.897c1.018,1.011,1.675,3.479,2.149,4.82c0.578,1.637,0.962,3.334,1.081,5.068  C83.974,42.897,83.122,46.482,81.915,49.846z"/><path d="M57,16c0,0,11,2,19-5l2,1v8c0,0-19,4-23,0v-4H57z"/><path d="M14.877,53.354c1.371,0.007,2.739,0.042,4.1,0.171c1.601,0.152,3.2,0.362,4.785,0.627  c22.827,5.544,33.782-12.434,33.782-12.434l4.595-8.307c1.032-1.359,1.529-2.784,1.744-4.082c-0.491-0.979-1.155-1.942-2.053-2.865  c0,0-2.057-5.652-0.541-6.594l-2.736,0.583l-2.406-0.989l-0.514,0.717c0,0,0.348,1.636,1.012,2.067c0,0,0.818,3.829-1.998,6.72  l-4.426,6.093c0,0-10.371,13.087-27.802,6.504c-1.222-0.365-2.46-0.685-3.705-0.959c-2.937-0.649-5.989-0.738-8.949-1.351L7,42.064  C7,42.064,7.358,48.642,14.877,53.354z M32.306,47.329c6.349-0.448,13.426-2.813,18.288-7.025c2.504-2.172,4.969-5.631,5.795-8.896  c0.25-0.999,0.984-2.066,2.113-2.103c0.195,1.061-0.455,2.87-0.734,3.902c-0.344,1.26-0.832,2.475-1.502,3.6  c-1.389,2.328-3.451,4.182-5.637,5.747c-4.751,3.396-10.376,5.703-16.191,6.374c-3.053,0.353-6.397,0.351-9.428-0.227  c-2.656-0.507-5.427-1.441-7.849-2.648c-2.915-1.449-5.602-3.316-8.5-4.802C15.955,44.987,23.99,47.916,32.306,47.329z"/><path d="M41.047,71.693c1.621-0.492,3.264-0.928,4.917-1.302c8.373-1.273,14.289-4.677,18.451-8.603  c0.107-0.104,0.217-0.209,0.322-0.314c0.116-0.113,0.228-0.227,0.341-0.341c8.173-8.476,8.851-18.889,8.851-18.889l0.225-10.003  c0.196-1.166,0.158-2.242-0.01-3.221c-0.505-0.479-1.052-0.945-1.669-1.385c0,0-0.893-1.539-1.628-3.294  c-0.2-0.201-0.333-0.347-0.333-0.347l0.043-0.386c-0.056-0.149-0.115-0.297-0.166-0.446c-0.896-0.417-1.804-1.269-1.804-1.269  l0.02-1.173l1.316-0.288c0.048-0.354,0.167-0.65,0.39-0.853l-3.263,1.342l-3.205-0.683l-0.477,1.007c0,0,0.805,1.95,1.724,2.335  c0,0,1.88,4.564-0.959,8.787l-4.11,8.558c0,0-9.903,18.578-33.011,14.354c-1.598-0.174-3.207-0.291-4.813-0.351  c-3.788-0.141-7.593,0.438-11.405,0.349L8,59.385c0,0,3.547,14.871,26.976,14.604C36.981,73.158,38.981,72.32,41.047,71.693z   M9.875,58.001c9.892,2.983,20.521,4.799,30.702,2.19c7.771-1.991,16.017-6.527,21.09-12.85c2.615-3.26,4.891-8.107,5.177-12.345  c0.088-1.295,0.758-2.785,2.146-3.086c0.483,1.271,0.087,3.662-0.028,5.006c-0.14,1.641-0.473,3.258-1.046,4.805  c-1.194,3.202-3.334,5.966-5.691,8.402c-5.126,5.286-11.581,9.419-18.641,11.567c-3.707,1.128-7.855,1.883-11.746,1.851  c-3.407-0.025-7.056-0.558-10.332-1.509C17.561,60.897,13.807,59.189,9.875,58.001z"/><text x="0" y="115" fill="#000000" font-size="5px" font-weight="bold" font-family="'Helvetica Neue', Helvetica, Arial-Unicode, Arial, Sans-serif">Created by Yi Chen</text><text x="0" y="120" fill="#000000" font-size="5px" font-weight="bold" font-family="'Helvetica Neue', Helvetica, Arial-Unicode, Arial, Sans-serif">from the Noun Project</text></svg>