<svg xmlns="http://www.w3.org/2000/svg" xmlns:xlink="http://www.w3.org/1999/xlink" version="1.1" x="0px" y="0px" viewBox="0 0 100 125" enable-background="new 0 0 100 100" xml:space="preserve"><path d="M95.191,61c-1.609,14-12.603,24.401-25.934,24.401C55.926,85.401,44.932,75,43.323,61h-1.596  c0.188,15,12.438,27.19,27.531,27.19C84.35,88.19,96.601,76,96.788,61H95.191z"/><path d="M45.215,61c0.109,5,2.557,11.096,6.494,15.254L67.506,61H45.215z M55.938,63.258c1.13-0.242,2.077-0.283,2.117-0.095  c0.041,0.188-0.843,0.536-1.972,0.776c-1.131,0.24-2.078,0.283-2.119,0.094C53.926,63.845,54.808,63.498,55.938,63.258z   M48.387,64.73c-0.04-0.188,0.843-0.535,1.974-0.775c1.13-0.242,2.077-0.283,2.119-0.095c0.039,0.188-0.843,0.536-1.974,0.776  C49.376,64.877,48.428,64.92,48.387,64.73z M49.781,67.52c-0.04-0.188,0.843-0.535,1.974-0.776c1.13-0.241,2.077-0.282,2.119-0.096  c0.039,0.189-0.843,0.538-1.974,0.777C50.77,67.666,49.822,67.709,49.781,67.52z M54.727,69.507  c-1.096,0.367-2.031,0.518-2.094,0.334c-0.061-0.183,0.777-0.628,1.872-0.996c1.096-0.367,2.033-0.518,2.095-0.334  C56.661,68.692,55.822,69.139,54.727,69.507z M58.267,66.694c-1.021,0.544-1.921,0.844-2.012,0.674s0.663-0.747,1.685-1.289  c1.019-0.542,1.92-0.843,2.01-0.673C60.04,65.576,59.286,66.153,58.267,66.694z M61.661,63.939c-1.13,0.24-2.079,0.283-2.118,0.094  c-0.04-0.188,0.843-0.535,1.972-0.775c1.131-0.242,2.079-0.283,2.119-0.095C63.675,63.351,62.791,63.699,61.661,63.939z"/><path d="M52.697,77.047c3.966,3.747,9.212,6.259,15.021,6.629l0.201-21.328L52.697,77.047z M58.526,76.824  c-0.612,0.981-1.241,1.692-1.404,1.59c-0.164-0.103,0.2-0.979,0.813-1.958s1.242-1.689,1.405-1.59  C59.503,74.969,59.139,75.847,58.526,76.824z M61.501,77.761c-0.613,0.981-1.241,1.692-1.405,1.59  c-0.163-0.103,0.2-0.979,0.813-1.958c0.612-0.98,1.241-1.69,1.405-1.59C62.477,75.906,62.113,76.782,61.501,77.761z M61.902,72.331  c-0.612,0.98-1.241,1.691-1.404,1.589c-0.164-0.103,0.201-0.979,0.813-1.958c0.612-0.979,1.242-1.69,1.404-1.59  C62.879,70.476,62.515,71.352,61.902,72.331z M64.962,77.177c-0.498,1.042-1.042,1.82-1.216,1.737s0.09-0.994,0.586-2.038  c0.497-1.043,1.042-1.82,1.215-1.738C65.722,75.221,65.459,76.134,64.962,77.177z M65.401,72.677  c-0.32,1.112-0.729,1.968-0.915,1.915c-0.185-0.054-0.076-0.996,0.243-2.106c0.319-1.111,0.73-1.968,0.914-1.914  C65.83,70.624,65.72,71.567,65.401,72.677z M65.78,68.321c-0.612,0.981-1.242,1.692-1.405,1.589c-0.163-0.103,0.2-0.979,0.813-1.958  c0.612-0.979,1.241-1.689,1.403-1.589C66.757,66.466,66.392,67.343,65.78,68.321z"/><path d="M69.312,62.595l-0.198,21.133c0.034,0,0.067,0.002,0.101,0.002c5.892,0,11.281-2.217,15.458-5.737L69.312,62.595z   M70.304,65.291c0.177-0.078,0.696,0.715,1.163,1.773c0.467,1.058,0.7,1.976,0.524,2.053c-0.177,0.08-0.697-0.715-1.163-1.772  C70.361,66.288,70.128,65.367,70.304,65.291z M73.128,74.579c-0.177,0.077-0.697-0.716-1.163-1.772  c-0.468-1.059-0.7-1.978-0.524-2.056c0.177-0.078,0.697,0.717,1.163,1.772C73.07,73.582,73.303,74.501,73.128,74.579z   M74.947,79.897c-0.178,0.078-0.697-0.717-1.163-1.772c-0.468-1.058-0.701-1.978-0.524-2.056c0.175-0.078,0.696,0.716,1.162,1.772  C74.889,78.9,75.122,79.819,74.947,79.897z M74.319,70.272c-0.738-0.89-1.217-1.709-1.069-1.832  c0.149-0.123,0.868,0.498,1.605,1.385c0.739,0.89,1.217,1.708,1.068,1.833C75.776,71.78,75.059,71.161,74.319,70.272z   M77.393,77.965c-0.176,0.077-0.696-0.717-1.163-1.774s-0.699-1.977-0.524-2.055c0.178-0.077,0.697,0.717,1.162,1.772  C77.335,76.967,77.568,77.887,77.393,77.965z M77.727,73.069c-0.583-0.998-0.919-1.885-0.753-1.981  c0.165-0.098,0.773,0.632,1.355,1.63c0.584,0.997,0.921,1.884,0.755,1.982C78.918,74.796,78.311,74.067,77.727,73.069z"/><path d="M69.513,61l-0.006-0.09l16.208,16.295C90.236,72.939,93.095,67,93.212,61H69.513z M84.654,62.848  c1.063,0.453,1.864,0.962,1.787,1.14c-0.075,0.178-0.997-0.046-2.06-0.497c-1.063-0.452-1.864-0.963-1.789-1.139  C82.669,62.173,83.591,62.396,84.654,62.848z M75.429,63.018c-1.005-0.569-1.742-1.168-1.647-1.334  c0.096-0.168,0.986,0.157,1.992,0.728c1.005,0.569,1.742,1.168,1.646,1.335C77.324,63.914,76.434,63.588,75.429,63.018z   M79.603,66.721c-1.008-0.57-1.744-1.169-1.649-1.336c0.096-0.168,0.987,0.158,1.992,0.728s1.742,1.167,1.647,1.336  C81.498,67.615,80.606,67.289,79.603,66.721z M79.979,63.281c-1.125-0.272-1.997-0.644-1.951-0.831  c0.044-0.188,0.991-0.119,2.112,0.153c1.124,0.271,1.998,0.643,1.952,0.83C82.047,63.621,81.101,63.552,79.979,63.281z M84.235,69.9  c-1.005-0.57-1.741-1.168-1.647-1.336c0.096-0.168,0.988,0.159,1.991,0.729c1.005,0.568,1.743,1.166,1.648,1.335  S85.242,70.47,84.235,69.9z M85.044,66.888c-1.006-0.569-1.742-1.168-1.648-1.335c0.097-0.167,0.987,0.159,1.992,0.729  s1.742,1.167,1.647,1.336C86.94,67.783,86.049,67.458,85.044,66.888z"/><path d="M6.924,18.872c0,0,23.39-7.602,30.406,12.28C37.33,31.151,22.712,18.287,6.924,18.872z"/><path d="M4,20.041c0,0,19.881,0,32.746,12.864C36.746,32.905,15.11,32.905,4,20.041z"/><path d="M39.961,33.441c0,0,0-5.441,2.631-5.441h2.631c0,0-2.631,4.475-0.877,7.105"/><path d="M39.104,58h32.408c0.013,0,0.026-0.494,0.026-0.788c0-13.563-12.763-24.515-28.506-24.515S14.525,43.715,14.525,57.278  S27.288,81.85,43.032,81.85c1.569,0,3.107-0.198,4.608-0.408C42.523,75.251,39.327,67,39.104,58z"/><text x="0" y="115" fill="#000000" font-size="5px" font-weight="bold" font-family="'Helvetica Neue', Helvetica, Arial-Unicode, Arial, Sans-serif">Created by Yi Chen</text><text x="0" y="120" fill="#000000" font-size="5px" font-weight="bold" font-family="'Helvetica Neue', Helvetica, Arial-Unicode, Arial, Sans-serif">from the Noun Project</text></svg>