<svg xmlns="http://www.w3.org/2000/svg" xmlns:xlink="http://www.w3.org/1999/xlink" version="1.1" x="0px" y="0px" viewBox="0 0 100 125" enable-background="new 0 0 100 100" xml:space="preserve"><path d="M28.14,62.717c1.187-1.941,2.613-3.833,4.18-5.652c5.057-5.876,7.23-11.444,9.387-18.687  c1.812-6.085,4.657-12.041,10.947-14.488C67.25,18.213,73.948,34.4,74.216,45.878c0.145,6.303,0.959,10.734,3.943,16.297  c2.657,4.956,5.938,9.628,5.183,15.563C81.911,88.99,70.432,95.483,60.181,96.29c-9.172,0.722-25.308-1.27-31.051-9.471  C25.563,81.726,24.905,68.008,28.14,62.717z"/><path d="M55.477,24.331c0,0,10.997-18.331,18.329-18.331l1.223,1.222c0,0-14.664,12.22-14.664,15.886L55.477,24.331z"/><text x="0" y="115" fill="#000000" font-size="5px" font-weight="bold" font-family="'Helvetica Neue', Helvetica, Arial-Unicode, Arial, Sans-serif">Created by Yi Chen</text><text x="0" y="120" fill="#000000" font-size="5px" font-weight="bold" font-family="'Helvetica Neue', Helvetica, Arial-Unicode, Arial, Sans-serif">from the Noun Project</text></svg>